<svg width="60" height="60" viewBox="0 0 60 60" fill="none" xmlns="http://www.w3.org/2000/svg">
<path fill-rule="evenodd" clip-rule="evenodd" d="M0.450714 28.9193L23.0465 6.44823C23.6475 5.85059 24.6215 5.85059 25.2224 6.44823L30 11.1994L34.7775 6.44823C35.3785 5.85059 36.3525 5.85059 36.9535 6.44823L59.5493 28.9193C60.1502 29.517 60.1502 30.4856 59.5493 31.0832L36.9535 53.5518C36.3525 54.1494 35.3785 54.1494 34.7775 53.5518L30 48.8006L25.2224 53.5518C24.6215 54.1494 23.6475 54.1494 23.0465 53.5518L0.450714 31.0807C-0.150238 30.4855 -0.150238 29.5145 0.450714 28.9193ZM32.1759 13.3636L47.8179 28.9193C48.4189 29.517 48.4189 30.4856 47.8179 31.0832L32.1759 46.639L35.8667 50.3094L56.2863 30.0026L35.8667 9.69318L32.1759 13.3636ZM12.1819 28.9193L27.824 13.3636L24.1332 9.69312L3.71361 30L24.1332 50.3068L27.824 46.6363L12.1819 31.0806C11.581 30.4855 11.581 29.5145 12.1819 28.9193ZM30.0003 15.5246L15.4447 29.9998L30.0003 44.475L44.5558 29.9998L30.0003 15.5246Z" fill="#5DD62C"/>
</svg>
