<svg width="24" height="24" viewBox="0 0 24 24" fill="none" xmlns="http://www.w3.org/2000/svg">
<path d="M11.815 5.88297C15.5466 5.88297 18.8745 7.98013 20.4991 11.2982C19.9182 12.4994 19.101 13.5332 18.1262 14.3701L19.5145 15.7583C20.883 14.5473 21.9661 13.031 22.6455 11.2982C20.9421 6.97585 16.738 3.9138 11.815 3.9138C10.5646 3.9138 9.36342 4.11072 8.23115 4.47501L9.85572 6.09957C10.4957 5.97158 11.1455 5.88297 11.815 5.88297ZM10.7615 7.00539L12.7996 9.04348C13.3608 9.28962 13.8137 9.74253 14.0599 10.3037L16.098 12.3418C16.1767 12.0071 16.2358 11.6526 16.2358 11.2883C16.2457 8.84656 14.2568 6.86755 11.815 6.86755C11.4507 6.86755 11.1061 6.91678 10.7615 7.00539ZM1.97905 3.7858L4.61773 6.42449C3.01286 7.68475 1.74275 9.35854 0.984619 11.2982C2.68795 15.6205 6.89212 18.6825 11.815 18.6825C13.3116 18.6825 14.7491 18.397 16.0684 17.8752L19.4357 21.2425L20.824 19.8542L3.36731 2.3877L1.97905 3.7858ZM9.36342 11.1702L11.9332 13.7399C11.8938 13.7498 11.8544 13.7596 11.815 13.7596C10.4563 13.7596 9.35358 12.6569 9.35358 11.2982C9.35358 11.2489 9.36342 11.2194 9.36342 11.1702ZM6.01584 7.82259L7.73886 9.54562C7.51241 10.0871 7.38441 10.6779 7.38441 11.2982C7.38441 13.7399 9.37327 15.7288 11.815 15.7288C12.4353 15.7288 13.0261 15.6008 13.5577 15.3743L14.5226 16.3392C13.6562 16.5755 12.7504 16.7134 11.815 16.7134C8.08346 16.7134 4.75557 14.6162 3.13101 11.2982C3.82022 9.89022 4.82449 8.72841 6.01584 7.82259Z" fill="black"/>
</svg>
