<svg width="24" height="24" viewBox="0 0 24 24" fill="none" xmlns="http://www.w3.org/2000/svg">
<path d="M12 6.39983C15.79 6.39983 19.17 8.49699 20.82 11.815C19.17 15.1331 15.79 17.2302 12 17.2302C8.21 17.2302 4.83 15.1331 3.18 11.815C4.83 8.49699 8.21 6.39983 12 6.39983ZM12 4.43066C7 4.43066 2.73 7.49272 1 11.815C2.73 16.1374 7 19.1994 12 19.1994C17 19.1994 21.27 16.1374 23 11.815C21.27 7.49272 17 4.43066 12 4.43066ZM12 9.35358C13.38 9.35358 14.5 10.4563 14.5 11.815C14.5 13.1738 13.38 14.2765 12 14.2765C10.62 14.2765 9.5 13.1738 9.5 11.815C9.5 10.4563 10.62 9.35358 12 9.35358ZM12 7.38441C9.52 7.38441 7.5 9.37327 7.5 11.815C7.5 14.2568 9.52 16.2457 12 16.2457C14.48 16.2457 16.5 14.2568 16.5 11.815C16.5 9.37327 14.48 7.38441 12 7.38441Z" fill="black"/>
</svg>
